<?xml version="1.0" encoding="UTF-8"?><svg id="Layer_1" xmlns="http://www.w3.org/2000/svg" viewBox="0 0 1000 1000"><defs><style>.cls-1{fill:#f5aa28;}.cls-1,.cls-2{stroke:#f5aa28;stroke-miterlimit:10;}.cls-2{fill:none;stroke-width:4px;}</style></defs><path class="cls-1" d="M47.99,784.86c-6.25,0-11.02-1.49-14.31-4.47-3.29-2.98-4.93-7.31-4.93-12.99v-28.97h5.82v29.04c0,4.17,1.17,7.28,3.51,9.34,2.34,2.06,5.64,3.09,9.9,3.09s7.49-1.03,9.83-3.09c2.34-2.06,3.51-5.17,3.51-9.34v-29.04h5.82v28.97c0,5.68-1.65,10.01-4.93,12.99-3.29,2.98-8.04,4.47-14.24,4.47Z"/><path class="cls-1" d="M72.84,784.15l16.12-22.72-15.9-23h6.67l12.71,18.67,12.71-18.67h6.67l-15.9,23,16.12,22.72h-6.75l-12.85-18.25-12.85,18.25h-6.75Z"/><path class="cls-1" d="M136.89,784.15v-45.72h17.89c6.63,0,11.48,1.8,14.56,5.4,3.08,3.6,4.62,9.51,4.62,17.75,0,7.81-1.5,13.53-4.51,17.15-3.01,3.62-7.89,5.43-14.66,5.43h-17.89ZM142.71,779.61h11c3.22,0,5.89-.48,8.02-1.46,2.13-.97,3.73-2.76,4.79-5.36,1.07-2.6,1.6-6.34,1.6-11.22s-.49-8.59-1.46-11.29c-.97-2.7-2.51-4.58-4.61-5.64-2.11-1.06-4.89-1.6-8.34-1.6h-11v36.57Z"/><path class="cls-1" d="M182.47,784.15v-45.72h30.88v4.61h-25.06v15.98h22.51v4.54h-22.51v16.05h25.06v4.54h-30.88Z"/><path class="cls-1" d="M233.16,784.86c-5.68,0-10.27-.71-13.77-2.13v-5.18c1.99.76,4.11,1.34,6.35,1.74,2.25.4,4.55.6,6.92.6,4.07,0,7.12-.56,9.16-1.67,2.03-1.11,3.05-3.11,3.05-6,0-1.8-.42-3.23-1.24-4.3-.83-1.06-2.19-1.96-4.08-2.7-1.89-.73-4.43-1.48-7.6-2.24-5.02-1.23-8.54-2.83-10.58-4.79-2.04-1.96-3.05-4.6-3.05-7.92,0-3.88,1.4-6.95,4.19-9.19,2.79-2.25,7.05-3.37,12.78-3.37,2.65,0,5.11.19,7.38.57,2.27.38,4.02.78,5.25,1.21v5.11c-1.7-.61-3.55-1.09-5.54-1.42-1.99-.33-4.05-.5-6.18-.5-3.88,0-6.86.57-8.95,1.7-2.08,1.14-3.12,3.1-3.12,5.89,0,1.56.37,2.83,1.1,3.8.73.97,1.98,1.8,3.73,2.48,1.75.69,4.19,1.41,7.31,2.17,3.74.9,6.65,1.98,8.73,3.23,2.08,1.25,3.55,2.73,4.4,4.44s1.28,3.65,1.28,5.82c0,4.02-1.47,7.13-4.4,9.34-2.94,2.2-7.31,3.3-13.13,3.3Z"/><path class="cls-1" d="M259.22,784.15v-45.72h5.82v45.72h-5.82Z"/><path class="cls-1" d="M295.5,784.86c-4.92,0-9.01-.93-12.25-2.8-3.24-1.87-5.67-4.5-7.28-7.88-1.61-3.38-2.41-7.35-2.41-11.89,0-4.97.76-9.3,2.27-12.99,1.51-3.69,3.88-6.54,7.1-8.55,3.22-2.01,7.38-3.02,12.5-3.02,2.65,0,5.05.19,7.21.57,2.15.38,4.18.9,6.07,1.56v5.11c-1.89-.71-3.9-1.27-6.03-1.67-2.13-.4-4.38-.6-6.75-.6-4.12,0-7.38.78-9.8,2.34-2.41,1.56-4.14,3.81-5.18,6.75-1.04,2.94-1.56,6.44-1.56,10.51,0,5.63,1.3,9.98,3.9,13.03,2.6,3.05,6.79,4.58,12.57,4.58,2.03,0,4-.17,5.89-.5,1.89-.33,3.57-.78,5.04-1.35v-14.55h-12.21v-3.98h17.25v21.73c-1.37.9-3.37,1.73-6,2.49s-6.07,1.14-10.33,1.14Z"/><path class="cls-1" d="M320.35,784.15v-45.72h5.25l26.06,36.78v-36.78h5.82v45.72h-5.33l-25.99-36.71v36.71h-5.82Z"/><path class="cls-1" d="M367.42,784.15v-45.72h30.88v4.61h-25.06v15.98h22.51v4.54h-22.51v16.05h25.06v4.54h-30.88Z"/><path class="cls-1" d="M406.82,784.15v-45.72h20.09c4.92,0,8.51,1.28,10.76,3.83,2.25,2.56,3.37,6.01,3.37,10.37,0,3.36-.82,6.15-2.45,8.38-1.63,2.23-4.06,3.72-7.28,4.47.95.57,1.67,1.22,2.17,1.95.5.73,1.01,1.72,1.53,2.95l5.96,13.77h-5.96l-5.82-13.28c-.62-1.42-1.36-2.44-2.24-3.05-.88-.61-2.43-.92-4.65-.92h-9.66v17.25h-5.82ZM412.65,762.35h12.64c3.08,0,5.5-.77,7.28-2.31,1.77-1.54,2.66-4.01,2.66-7.42,0-6.39-3.05-9.58-9.16-9.58h-13.42v19.31Z"/><path class="cls-1" d="M469.57,784.15v-45.72h1.99v43.95h26.27v1.78h-28.26Z"/><path class="cls-1" d="M521.33,784.86c-4.64,0-8.43-.95-11.36-2.84-2.93-1.89-5.1-4.58-6.5-8.06-1.4-3.48-2.09-7.56-2.09-12.25,0-8.19,1.59-14.24,4.76-18.14,3.17-3.91,8.24-5.86,15.19-5.86s12.02,1.95,15.19,5.86c3.17,3.9,4.76,9.95,4.76,18.14,0,4.69-.7,8.77-2.09,12.25-1.4,3.48-3.56,6.17-6.5,8.06-2.94,1.89-6.72,2.84-11.36,2.84ZM521.33,783.08c6.06,0,10.58-1.82,13.56-5.47,2.98-3.64,4.47-8.95,4.47-15.9,0-5.44-.66-9.79-1.99-13.03-1.33-3.24-3.33-5.58-6-7.03-2.67-1.44-6.02-2.17-10.05-2.17s-7.37.72-10.05,2.17c-2.67,1.44-4.67,3.79-6,7.03-1.33,3.24-1.99,7.59-1.99,13.03,0,6.96,1.49,12.26,4.47,15.9,2.98,3.65,7.5,5.47,13.56,5.47Z"/><path class="cls-1" d="M562.37,784.86c-2.7,0-5.08-.15-7.14-.46-2.06-.31-3.92-.77-5.57-1.38v-1.78c1.89.62,3.87,1.09,5.93,1.42,2.06.33,4.32.5,6.78.5,4.78,0,8.42-.83,10.93-2.48s3.76-4.28,3.76-7.88c0-2.18-.5-3.96-1.49-5.36-.99-1.4-2.54-2.54-4.65-3.44-2.11-.9-4.86-1.7-8.27-2.41-3.55-.76-6.37-1.66-8.45-2.7-2.08-1.04-3.57-2.31-4.47-3.8-.9-1.49-1.35-3.28-1.35-5.36,0-3.55,1.27-6.44,3.8-8.66,2.53-2.22,6.57-3.34,12.11-3.34,2.51,0,4.85.18,7.03.53,2.18.35,3.79.72,4.83,1.1v1.77c-1.52-.52-3.23-.92-5.15-1.21-1.92-.28-3.96-.43-6.14-.43-4.78,0-8.4.83-10.86,2.49-2.46,1.66-3.69,4.24-3.69,7.74,0,1.94.41,3.53,1.24,4.76.83,1.23,2.25,2.28,4.26,3.16,2.01.88,4.79,1.72,8.34,2.52,3.69.81,6.63,1.78,8.8,2.91,2.18,1.14,3.73,2.49,4.65,4.05.92,1.56,1.38,3.46,1.38,5.68,0,4.12-1.43,7.16-4.3,9.12-2.86,1.96-6.97,2.95-12.32,2.95Z"/><path class="cls-1" d="M604.18,784.15l17.25-45.72h3.2l17.18,45.72h-1.99l-5.33-14.2h-22.93l-5.32,14.2h-2.06ZM612.21,768.18h21.58l-10.79-28.61-10.79,28.61Z"/><path class="cls-1" d="M651.75,784.15v-45.72h2.2l30.53,43.03v-43.03h1.99v45.72h-2.2l-30.53-43.03v43.03h-1.99Z"/><path class="cls-1" d="M716.58,784.86c-4.73,0-8.58-.93-11.54-2.8-2.96-1.87-5.14-4.46-6.53-7.77-1.4-3.31-2.09-7.15-2.09-11.5,0-4.92.64-9.27,1.92-13.03,1.28-3.76,3.38-6.71,6.32-8.84,2.93-2.13,6.89-3.19,11.86-3.19,2.51,0,4.84.15,6.99.46,2.15.31,4.11.72,5.86,1.24v1.85c-1.75-.52-3.7-.95-5.86-1.28-2.15-.33-4.39-.5-6.71-.5-4.73,0-8.45.99-11.15,2.98-2.7,1.99-4.59,4.72-5.68,8.2-1.09,3.48-1.63,7.51-1.63,12.11,0,6.3,1.47,11.25,4.4,14.88,2.93,3.62,7.69,5.43,14.27,5.43,2.41,0,4.83-.22,7.24-.67,2.41-.45,4.47-1,6.18-1.67v-18.46h-13.77v-1.85h15.76v21.09c-1.18.76-3.04,1.5-5.57,2.24-2.53.73-5.95,1.1-10.26,1.1Z"/><path class="cls-1" d="M742.35,784.15v-45.72h28.97v1.77h-26.98v20.16h24.5v1.78h-24.5v20.23h26.98v1.78h-28.97Z"/><path class="cls-1" d="M780.54,784.15v-45.72h1.99v43.95h26.27v1.78h-28.26Z"/><path class="cls-1" d="M817.32,784.15v-45.72h28.97v1.77h-26.98v20.16h24.5v1.78h-24.5v20.23h26.98v1.78h-28.97Z"/><path class="cls-1" d="M866.67,784.86c-2.7,0-5.08-.15-7.14-.46-2.06-.31-3.92-.77-5.57-1.38v-1.78c1.89.62,3.87,1.09,5.93,1.42,2.06.33,4.32.5,6.78.5,4.78,0,8.42-.83,10.93-2.48s3.76-4.28,3.76-7.88c0-2.18-.5-3.96-1.49-5.36-.99-1.4-2.54-2.54-4.65-3.44-2.11-.9-4.86-1.7-8.27-2.41-3.55-.76-6.37-1.66-8.45-2.7-2.08-1.04-3.57-2.31-4.47-3.8-.9-1.49-1.35-3.28-1.35-5.36,0-3.55,1.27-6.44,3.8-8.66,2.53-2.22,6.57-3.34,12.11-3.34,2.51,0,4.85.18,7.03.53,2.18.35,3.79.72,4.83,1.1v1.77c-1.52-.52-3.23-.92-5.15-1.21-1.92-.28-3.96-.43-6.14-.43-4.78,0-8.4.83-10.86,2.49-2.46,1.66-3.69,4.24-3.69,7.74,0,1.94.41,3.53,1.24,4.76.83,1.23,2.25,2.28,4.26,3.16,2.01.88,4.79,1.72,8.34,2.52,3.69.81,6.63,1.78,8.8,2.91,2.18,1.14,3.73,2.49,4.65,4.05.92,1.56,1.38,3.46,1.38,5.68,0,4.12-1.43,7.16-4.3,9.12-2.86,1.96-6.97,2.95-12.32,2.95Z"/><path class="cls-1" d="M928.58,784.86c-4.73,0-8.58-.93-11.54-2.8-2.96-1.87-5.12-4.46-6.5-7.77-1.37-3.31-2.06-7.15-2.06-11.5,0-4.92.63-9.27,1.88-13.03,1.25-3.76,3.35-6.71,6.28-8.84,2.93-2.13,6.91-3.19,11.93-3.19,2.51,0,4.84.17,6.99.5,2.15.33,4.11.83,5.86,1.49v1.85c-1.75-.66-3.7-1.17-5.86-1.53-2.15-.35-4.41-.53-6.78-.53-4.73,0-8.44.99-11.11,2.98-2.67,1.99-4.56,4.72-5.64,8.2-1.09,3.48-1.63,7.51-1.63,12.11,0,6.3,1.46,11.25,4.37,14.88,2.91,3.62,7.66,5.43,14.24,5.43,2.08,0,4.24-.15,6.46-.46,2.22-.31,4.21-.75,5.96-1.31v1.85c-1.75.52-3.7.94-5.86,1.24-2.15.31-4.49.46-6.99.46Z"/><path class="cls-1" d="M947.11,784.15l17.25-45.72h3.2l17.18,45.72h-1.99l-5.33-14.2h-22.93l-5.32,14.2h-2.06ZM955.13,768.18h21.58l-10.79-28.61-10.79,28.61Z"/><path class="cls-1" d="M23.78,240.92l14.96-70.84h3.08l-7.15,33.99h44.11l7.15-33.99h3.08l-14.96,70.84h-3.08l7.15-34.1h-44.11l-7.15,34.1h-3.08Z"/><path class="cls-1" d="M115.3,242.02c-9.53,0-15.8-2.22-18.81-6.66-3.01-4.44-3.48-11.42-1.43-20.95,1.76-8.36,4.86-14.91,9.29-19.64,4.44-4.73,10.98-7.1,19.63-7.1,4.91,0,8.67.92,11.28,2.75,2.6,1.83,4.27,4.29,5,7.37.73,3.08.7,6.45-.11,10.12l-1.87,9.02h-40.7c-.95,5.06-1.1,9.24-.44,12.54.66,3.3,2.51,5.76,5.55,7.37,3.04,1.61,7.65,2.42,13.81,2.42,4.4,0,9.09-.92,14.08-2.75l-.66,2.86c-4.84,1.76-9.72,2.64-14.63,2.64ZM98.14,214.08h37.62l1.21-5.72c.81-3.67.95-6.84.44-9.52-.51-2.68-1.87-4.75-4.07-6.21-2.2-1.47-5.5-2.2-9.9-2.2-7.33,0-12.98,2.11-16.94,6.33-3.96,4.22-6.75,9.99-8.36,17.33Z"/><path class="cls-1" d="M156.33,242.02c-2.42,0-4.2-.7-5.33-2.09-1.14-1.39-1.3-4-.5-7.81l13.86-65.34h3.08l-13.97,65.78c-.51,2.49-.5,4.22.05,5.17.55.95,1.63,1.43,3.25,1.43.81,0,1.61-.04,2.42-.11.81-.07,1.61-.22,2.42-.44l-.66,2.86c-.73.22-1.56.37-2.47.44-.92.07-1.63.11-2.15.11Z"/><path class="cls-1" d="M178.77,242.02c-2.42,0-4.2-.7-5.33-2.09-1.14-1.39-1.3-4-.5-7.81l13.86-65.34h3.08l-13.97,65.78c-.51,2.49-.5,4.22.05,5.17.55.95,1.63,1.43,3.25,1.43.81,0,1.61-.04,2.42-.11.81-.07,1.61-.22,2.42-.44l-.66,2.86c-.73.22-1.56.37-2.47.44-.92.07-1.63.11-2.15.11Z"/><path class="cls-1" d="M217.49,242.02c-8.43,0-13.99-2.31-16.66-6.93-2.68-4.62-3.1-11.37-1.27-20.24,1.91-8.87,5.15-15.62,9.74-20.24,4.58-4.62,11.17-6.93,19.75-6.93s13.93,2.31,16.72,6.93c2.79,4.62,3.23,11.37,1.32,20.24-1.83,8.87-5.02,15.62-9.57,20.24-4.55,4.62-11.22,6.93-20.02,6.93ZM218.15,239.27c7.63,0,13.42-2.04,17.38-6.1,3.96-4.07,6.82-10.18,8.58-18.31,1.17-5.43,1.5-9.96.99-13.58-.51-3.63-2.07-6.34-4.67-8.14-2.6-1.8-6.58-2.7-11.94-2.7-7.55,0-13.35,2.04-17.38,6.11-4.03,4.07-6.89,10.17-8.58,18.31-1.17,5.43-1.54,9.95-1.1,13.58.44,3.63,1.98,6.34,4.62,8.14,2.64,1.8,6.67,2.7,12.1,2.7Z"/><path class="cls-1" d="M247.08,254.12l6.27-16.83h3.63l-7.48,16.83h-2.42Z"/><path class="cls-1" d="M297.45,240.92l14.96-70.84h3.08l-14.96,70.84h-3.08Z"/><path class="cls-1" d="M327.59,186.47l8.47-17.49h3.63l-9.68,17.49h-2.42Z"/><path class="cls-1" d="M334.85,240.92l11-52.14h2.53l-.88,6.82c3.52-2.57,7.09-4.53,10.72-5.89,3.63-1.36,7.24-2.04,10.83-2.04,4.18,0,7.26.7,9.24,2.09,1.98,1.39,3.23,3.3,3.74,5.72,3.01-2.2,6.34-4.05,10.01-5.55,3.67-1.5,7.85-2.26,12.54-2.26,5.87,0,9.94,1.47,12.21,4.4,2.27,2.93,2.75,7.52,1.43,13.75l-7.37,35.09h-3.08l7.37-34.98c1.25-5.79.86-9.83-1.15-12.1-2.02-2.27-5.67-3.41-10.95-3.41-3.67,0-7.28.66-10.83,1.98-3.56,1.32-6.76,3.23-9.62,5.72.07,1.1.02,2.46-.17,4.07-.18,1.61-.42,3.04-.71,4.29l-7.26,34.43h-3.08l7.26-34.43c1.25-5.65,1.19-9.73-.17-12.26-1.36-2.53-4.75-3.8-10.17-3.8-3.59,0-7.32.84-11.17,2.53-3.85,1.69-7.32,3.7-10.4,6.05l-8.8,41.91h-3.08Z"/><path class="cls-2" d="M19.1,477.35l66.37-175.17h19.04l66.1,175.17h-15.23l-19.31-51.14H53.92l-19.31,51.14h-15.5ZM57.18,413.97h75.34l-37.81-99.82-37.54,99.82Z"/><path class="cls-2" d="M263.63,480.07c-23.76,0-41.57-5.67-53.45-17-11.88-11.33-17.82-27.7-17.82-49.1v-111.79h14.96v113.42c0,17.41,4.94,30.33,14.82,38.76,9.88,8.43,23.71,12.65,41.48,12.65s31.55-4.22,41.34-12.65,14.69-21.35,14.69-38.76v-113.42h14.96v111.79c0,21.4-5.89,37.77-17.68,49.1-11.79,11.33-29.56,17-53.31,17Z"/><path class="cls-2" d="M374.06,477.35v-175.17h76.98c17.23,0,29.69,3.99,37.4,11.97,7.71,7.98,11.56,19.22,11.56,33.73,0,9.79-2.04,17.95-6.12,24.48-4.08,6.53-9.66,11.33-16.73,14.42,9.07,2,16.32,6.26,21.76,12.78s8.16,15.96,8.16,28.29c0,17.05-4.26,29.56-12.78,37.54-8.53,7.98-21.22,11.97-38.08,11.97h-82.14ZM389.02,381.06h63.38c12.33,0,20.99-3.03,25.98-9.11,4.99-6.07,7.48-13.83,7.48-23.26,0-11.24-2.58-19.81-7.75-25.7-5.17-5.89-15.28-8.84-30.33-8.84h-58.75v66.91ZM389.02,465.65h65.82c12.87,0,22.35-2.95,28.42-8.84,6.07-5.89,9.11-15.73,9.11-29.51,0-11.24-2.95-19.81-8.84-25.7-5.89-5.89-16.82-8.84-32.78-8.84h-61.74v72.9Z"/><path class="cls-2" d="M542.42,477.35v-175.17h73.17c18.31,0,31.59,4.72,39.85,14.14,8.25,9.43,12.38,22.13,12.38,38.08,0,13.42-3.22,24.39-9.66,32.91-6.44,8.53-16.09,14.06-28.97,16.59,4.17,2,7.21,4.45,9.11,7.34,1.9,2.9,3.94,6.71,6.12,11.42l23.39,54.67h-15.23l-23.12-52.77c-1.82-4.17-3.81-7.52-5.98-10.06-2.18-2.54-5.17-4.39-8.98-5.58-3.81-1.18-9.16-1.77-16.05-1.77h-41.07v70.18h-14.96ZM557.38,395.2h53.86c12.87,0,23.03-3.22,30.46-9.66,7.43-6.43,11.15-16.82,11.15-31.14,0-26.66-12.78-39.98-38.35-39.98h-57.12v80.78Z"/><path class="cls-2" d="M703.44,477.35v-175.17h114.51v12.24h-99.55v69.36h90.03v11.97h-90.03v69.63h99.55v11.97h-114.51Z"/><path class="cls-2" d="M907.44,477.35v-65.55l-62.29-109.62h15.5l54.4,96.56,54.4-96.56h15.5l-62.56,109.62v65.55h-14.96Z"/><path class="cls-2" d="M75.66,684.02v-65.41l-63.76-112.33h46.37l39.74,73.69,39.74-73.69h46.37l-63.76,112.33v65.41h-44.71Z"/><path class="cls-2" d="M281.28,686.78c-28.89,0-50.88-7.36-65.96-22.08-15.09-14.72-22.63-37.63-22.63-68.72,0-32.93,7.54-56.58,22.63-70.93,15.08-14.35,37.08-21.53,65.96-21.53s50.88,7.18,65.96,21.53c15.08,14.35,22.63,38,22.63,70.93,0,31.1-7.55,54.01-22.63,68.72-15.09,14.72-37.08,22.08-65.96,22.08ZM281.28,648.97c14.9,0,25.81-4.28,32.71-12.83,6.9-8.56,10.35-21.94,10.35-40.16,0-19.87-3.45-33.9-10.35-42.09-6.9-8.19-17.8-12.28-32.71-12.28s-26.08,4.1-32.98,12.28c-6.9,8.19-10.35,22.22-10.35,42.09,0,18.22,3.45,31.6,10.35,40.16,6.9,8.56,17.89,12.83,32.98,12.83Z"/><path class="cls-2" d="M493.52,686.78c-16.56,0-30.96-2.67-43.19-8-12.24-5.33-21.71-13.25-28.43-23.74-6.72-10.49-10.07-23.36-10.07-38.64v-110.12h44.44v105.98c0,12.33,3.22,21.53,9.66,27.6,6.44,6.07,15.64,9.11,27.6,9.11s21.16-3.04,27.6-9.11c6.44-6.07,9.66-15.27,9.66-27.6v-105.98h44.44v110.12c0,15.28-3.36,28.15-10.07,38.64-6.72,10.49-16.19,18.4-28.43,23.74-12.24,5.33-26.63,8-43.19,8Z"/><path class="cls-2" d="M622.68,684.02v-177.74h38.09l75.62,106.26v-106.26h44.71v177.74h-38.36l-75.62-105.98v105.98h-44.44Z"/><path class="cls-2" d="M918.55,686.78c-30.73,0-54.1-7.77-70.1-23.32-16.01-15.55-24.01-37.49-24.01-65.83s8.19-52.72,24.56-69.28c16.37-16.56,40.48-24.84,72.31-24.84,10.85,0,20.65.65,29.39,1.93,8.74,1.29,17.06,3.22,24.98,5.8v38.09c-7.91-2.94-16.15-4.97-24.7-6.07-8.56-1.1-17.34-1.66-26.36-1.66-19.14,0-33.08,4.55-41.81,13.66-8.74,9.11-13.11,23.23-13.11,42.37,0,17.48,4.14,30.41,12.42,38.78,8.28,8.38,20.51,12.56,36.71,12.56,10.67,0,20.6-1.47,29.81-4.42v-33.67h-38.36v-27.88h75.62v88.04c-6.26,4.05-14.95,7.68-26.08,10.9-11.13,3.22-24.89,4.83-41.26,4.83Z"/></svg>