<?xml version="1.0" encoding="UTF-8"?><svg id="Layer_1" xmlns="http://www.w3.org/2000/svg" viewBox="0 0 1920 1080"><defs><style>.cls-1{fill:#dbd5d6;}.cls-2{fill:#262f33;stroke:#262f33;stroke-miterlimit:10;}</style></defs><rect class="cls-1" x="0" width="1920" height="1080"/><path class="cls-2" d="M659.09,615.47c-4.17,0-7.35-1-9.55-2.98-2.2-1.99-3.29-4.88-3.29-8.67v-19.33h3.89v19.38c0,2.78.78,4.86,2.35,6.23,1.56,1.37,3.77,2.06,6.61,2.06s5-.69,6.56-2.06c1.56-1.37,2.35-3.45,2.35-6.23v-19.38h3.89v19.33c0,3.79-1.1,6.68-3.29,8.67-2.2,1.99-5.36,2.98-9.5,2.98Z"/><path class="cls-2" d="M675.67,615l10.76-15.16-10.61-15.35h4.45l8.48,12.46,8.48-12.46h4.45l-10.61,15.35,10.76,15.16h-4.5l-8.58-12.18-8.58,12.18h-4.5Z"/><path class="cls-2" d="M718.41,615v-30.51h11.94c4.42,0,7.66,1.2,9.71,3.6,2.05,2.4,3.08,6.35,3.08,11.85,0,5.21-1,9.03-3.01,11.44-2.01,2.42-5.27,3.62-9.78,3.62h-11.94ZM722.3,611.97h7.34c2.15,0,3.93-.32,5.35-.97,1.42-.65,2.49-1.84,3.2-3.58.71-1.74,1.07-4.23,1.07-7.49s-.32-5.73-.97-7.53c-.65-1.8-1.67-3.06-3.08-3.77-1.41-.71-3.26-1.07-5.57-1.07h-7.34v24.4Z"/><path class="cls-2" d="M748.83,615v-30.51h20.61v3.08h-16.73v10.66h15.02v3.03h-15.02v10.71h16.73v3.03h-20.61Z"/><path class="cls-2" d="M782.66,615.47c-3.79,0-6.86-.47-9.19-1.42v-3.46c1.33.51,2.74.89,4.24,1.16,1.5.27,3.04.4,4.62.4,2.72,0,4.75-.37,6.11-1.11,1.36-.74,2.04-2.08,2.04-4,0-1.2-.28-2.16-.83-2.87-.55-.71-1.46-1.31-2.72-1.8-1.26-.49-2.95-.99-5.07-1.49-3.35-.82-5.7-1.89-7.06-3.2-1.36-1.31-2.04-3.07-2.04-5.28,0-2.59.93-4.63,2.8-6.14,1.86-1.5,4.71-2.25,8.53-2.25,1.77,0,3.41.13,4.93.38,1.52.25,2.68.52,3.51.81v3.41c-1.14-.41-2.37-.73-3.7-.95-1.33-.22-2.7-.33-4.12-.33-2.59,0-4.58.38-5.97,1.14-1.39.76-2.08,2.07-2.08,3.93,0,1.04.24,1.89.73,2.54.49.65,1.32,1.2,2.49,1.66,1.17.46,2.8.94,4.88,1.45,2.49.6,4.44,1.32,5.83,2.16,1.39.84,2.37,1.82,2.94,2.96s.85,2.43.85,3.89c0,2.69-.98,4.76-2.94,6.23-1.96,1.47-4.88,2.2-8.77,2.2Z"/><path class="cls-2" d="M800.05,615v-30.51h3.89v30.51h-3.89Z"/><path class="cls-2" d="M824.26,615.47c-3.29,0-6.01-.62-8.17-1.87-2.16-1.25-3.78-3-4.86-5.26-1.07-2.26-1.61-4.9-1.61-7.94,0-3.32.51-6.21,1.52-8.67,1.01-2.46,2.59-4.37,4.74-5.71,2.15-1.34,4.93-2.01,8.34-2.01,1.77,0,3.37.13,4.81.38,1.44.25,2.79.6,4.05,1.04v3.41c-1.26-.47-2.61-.84-4.03-1.11-1.42-.27-2.92-.4-4.5-.4-2.75,0-4.93.52-6.54,1.56-1.61,1.04-2.76,2.54-3.46,4.5-.7,1.96-1.04,4.3-1.04,7.01,0,3.76.87,6.66,2.61,8.69,1.74,2.04,4.53,3.06,8.39,3.06,1.36,0,2.67-.11,3.93-.33,1.26-.22,2.38-.52,3.36-.9v-9.71h-8.15v-2.65h11.51v14.5c-.92.6-2.25,1.15-4,1.66s-4.05.76-6.89.76Z"/><path class="cls-2" d="M840.84,615v-30.51h3.51l17.39,24.54v-24.54h3.89v30.51h-3.55l-17.34-24.5v24.5h-3.89Z"/><path class="cls-2" d="M872.26,615v-30.51h20.61v3.08h-16.73v10.66h15.02v3.03h-15.02v10.71h16.73v3.03h-20.61Z"/><path class="cls-2" d="M898.55,615v-30.51h13.41c3.28,0,5.68.85,7.18,2.56,1.5,1.71,2.25,4.01,2.25,6.92,0,2.24-.54,4.11-1.63,5.59-1.09,1.49-2.71,2.48-4.86,2.99.63.38,1.11.81,1.45,1.3.33.49.67,1.15,1.02,1.97l3.98,9.19h-3.98l-3.89-8.86c-.41-.95-.91-1.63-1.49-2.04-.58-.41-1.62-.62-3.1-.62h-6.44v11.51h-3.89ZM902.44,600.45h8.43c2.05,0,3.67-.51,4.86-1.54,1.18-1.03,1.78-2.68,1.78-4.95,0-4.26-2.04-6.4-6.11-6.4h-8.96v12.89Z"/><path class="cls-2" d="M940.43,615v-30.51h1.33v29.33h17.53v1.18h-18.86Z"/><path class="cls-2" d="M974.97,615.47c-3.1,0-5.62-.63-7.58-1.9-1.96-1.26-3.4-3.06-4.34-5.38-.93-2.32-1.4-5.05-1.4-8.17,0-5.46,1.06-9.5,3.17-12.11,2.12-2.61,5.5-3.91,10.14-3.91s8.02,1.3,10.14,3.91c2.12,2.61,3.17,6.64,3.17,12.11,0,3.13-.47,5.85-1.4,8.17-.93,2.32-2.38,4.11-4.34,5.38-1.96,1.26-4.49,1.9-7.58,1.9ZM974.97,614.29c4.04,0,7.06-1.22,9.05-3.65,1.99-2.43,2.98-5.97,2.98-10.61,0-3.63-.44-6.53-1.33-8.7-.88-2.16-2.22-3.73-4-4.69-1.79-.96-4.02-1.45-6.7-1.45s-4.92.48-6.7,1.45c-1.78.96-3.12,2.53-4,4.69-.89,2.16-1.33,5.06-1.33,8.7,0,4.64,1,8.18,2.99,10.61,1.99,2.43,5.01,3.65,9.05,3.65Z"/><path class="cls-2" d="M1002.36,615.47c-1.8,0-3.39-.1-4.76-.31-1.37-.2-2.61-.51-3.72-.92v-1.18c1.26.41,2.58.73,3.96.95,1.37.22,2.88.33,4.52.33,3.19,0,5.62-.55,7.3-1.66s2.51-2.86,2.51-5.26c0-1.45-.33-2.65-1-3.58-.66-.93-1.7-1.7-3.1-2.3-1.41-.6-3.25-1.14-5.52-1.61-2.37-.51-4.25-1.11-5.64-1.8-1.39-.69-2.39-1.54-2.98-2.53-.6-1-.9-2.19-.9-3.58,0-2.37.84-4.3,2.54-5.78,1.69-1.48,4.38-2.23,8.08-2.23,1.67,0,3.24.12,4.69.36,1.45.24,2.53.48,3.22.73v1.18c-1.01-.35-2.16-.62-3.44-.81-1.28-.19-2.65-.28-4.1-.28-3.19,0-5.61.55-7.25,1.66-1.64,1.11-2.46,2.83-2.46,5.16,0,1.3.28,2.35.83,3.17.55.82,1.5,1.52,2.84,2.11,1.34.58,3.2,1.15,5.57,1.68,2.46.54,4.42,1.18,5.88,1.94,1.45.76,2.49,1.66,3.1,2.7.62,1.04.92,2.31.92,3.79,0,2.75-.96,4.78-2.87,6.09-1.91,1.31-4.65,1.97-8.22,1.97Z"/><path class="cls-2" d="M1030.26,615l11.51-30.51h2.13l11.47,30.51h-1.33l-3.55-9.48h-15.3l-3.55,9.48h-1.37ZM1035.62,604.34h14.4l-7.2-19.1-7.2,19.1Z"/><path class="cls-2" d="M1062.01,615v-30.51h1.47l20.37,28.71v-28.71h1.33v30.51h-1.47l-20.37-28.71v28.71h-1.33Z"/><path class="cls-2" d="M1105.27,615.47c-3.16,0-5.73-.62-7.7-1.87-1.97-1.25-3.43-2.98-4.36-5.19-.93-2.21-1.4-4.77-1.4-7.68,0-3.28.43-6.18,1.28-8.69.85-2.51,2.26-4.48,4.22-5.9,1.96-1.42,4.6-2.13,7.91-2.13,1.67,0,3.23.1,4.67.31,1.44.21,2.74.48,3.91.83v1.23c-1.17-.35-2.47-.63-3.91-.85-1.44-.22-2.93-.33-4.48-.33-3.16,0-5.64.66-7.44,1.99-1.8,1.33-3.06,3.15-3.79,5.47-.73,2.32-1.09,5.01-1.09,8.08,0,4.2.98,7.51,2.94,9.93,1.96,2.42,5.13,3.62,9.52,3.62,1.61,0,3.22-.15,4.83-.45,1.61-.3,2.99-.67,4.12-1.11v-12.32h-9.19v-1.23h10.52v14.07c-.79.51-2.03,1-3.72,1.49-1.69.49-3.97.73-6.85.73Z"/><path class="cls-2" d="M1122.47,615v-30.51h19.33v1.18h-18.01v13.46h16.35v1.18h-16.35v13.5h18.01v1.18h-19.33Z"/><path class="cls-2" d="M1147.96,615v-30.51h1.33v29.33h17.53v1.18h-18.86Z"/><path class="cls-2" d="M1172.5,615v-30.51h19.33v1.18h-18.01v13.46h16.35v1.18h-16.35v13.5h18.01v1.18h-19.33Z"/><path class="cls-2" d="M1205.43,615.47c-1.8,0-3.39-.1-4.76-.31-1.37-.2-2.61-.51-3.72-.92v-1.18c1.26.41,2.58.73,3.96.95,1.37.22,2.88.33,4.52.33,3.19,0,5.62-.55,7.3-1.66s2.51-2.86,2.51-5.26c0-1.45-.33-2.65-1-3.58-.66-.93-1.7-1.7-3.1-2.3-1.41-.6-3.25-1.14-5.52-1.61-2.37-.51-4.25-1.11-5.64-1.8-1.39-.69-2.39-1.54-2.98-2.53-.6-1-.9-2.19-.9-3.58,0-2.37.84-4.3,2.54-5.78,1.69-1.48,4.38-2.23,8.08-2.23,1.67,0,3.24.12,4.69.36,1.45.24,2.53.48,3.22.73v1.18c-1.01-.35-2.16-.62-3.44-.81-1.28-.19-2.65-.28-4.1-.28-3.19,0-5.61.55-7.25,1.66-1.64,1.11-2.46,2.83-2.46,5.16,0,1.3.28,2.35.83,3.17.55.82,1.5,1.52,2.84,2.11,1.34.58,3.2,1.15,5.57,1.68,2.46.54,4.42,1.18,5.88,1.94,1.45.76,2.49,1.66,3.1,2.7.62,1.04.92,2.31.92,3.79,0,2.75-.96,4.78-2.87,6.09-1.91,1.31-4.65,1.97-8.22,1.97Z"/><path class="cls-2" d="M1246.75,615.47c-3.16,0-5.73-.62-7.7-1.87-1.97-1.25-3.42-2.98-4.34-5.19-.92-2.21-1.37-4.77-1.37-7.68,0-3.28.42-6.18,1.26-8.69.84-2.51,2.23-4.48,4.19-5.9,1.96-1.42,4.61-2.13,7.96-2.13,1.67,0,3.23.11,4.67.33,1.44.22,2.74.55,3.91.99v1.23c-1.17-.44-2.47-.78-3.91-1.02-1.44-.24-2.95-.36-4.52-.36-3.16,0-5.63.66-7.42,1.99-1.78,1.33-3.04,3.15-3.77,5.47-.73,2.32-1.09,5.01-1.09,8.08,0,4.2.97,7.51,2.91,9.93,1.94,2.42,5.11,3.62,9.5,3.62,1.39,0,2.83-.1,4.31-.31,1.48-.21,2.81-.5,3.98-.88v1.23c-1.17.35-2.47.62-3.91.83-1.44.21-2.99.31-4.67.31Z"/><path class="cls-2" d="M1259.11,615l11.51-30.51h2.13l11.47,30.51h-1.33l-3.55-9.48h-15.3l-3.55,9.48h-1.37ZM1264.47,604.34h14.4l-7.2-19.1-7.2,19.1Z"/><path class="cls-2" d="M642.93,290.85l7.33-34.71h1.51l-3.5,16.65h21.61l3.5-16.65h1.51l-7.33,34.71h-1.51l3.5-16.71h-21.61l-3.5,16.71h-1.51Z"/><path class="cls-2" d="M687.77,291.39c-4.67,0-7.74-1.09-9.22-3.26-1.47-2.17-1.71-5.6-.7-10.27.86-4.1,2.38-7.3,4.55-9.62,2.17-2.32,5.38-3.48,9.62-3.48,2.41,0,4.25.45,5.52,1.35,1.27.9,2.09,2.1,2.45,3.61.36,1.51.34,3.16-.05,4.96l-.92,4.42h-19.94c-.47,2.48-.54,4.53-.22,6.14.32,1.62,1.23,2.82,2.72,3.61,1.49.79,3.75,1.19,6.76,1.19,2.16,0,4.45-.45,6.9-1.35l-.32,1.4c-2.37.86-4.76,1.29-7.17,1.29ZM679.36,277.7h18.43l.59-2.8c.39-1.8.47-3.35.22-4.66-.25-1.31-.92-2.33-1.99-3.04-1.08-.72-2.69-1.08-4.85-1.08-3.59,0-6.36,1.03-8.3,3.1-1.94,2.07-3.31,4.9-4.1,8.49Z"/><path class="cls-2" d="M707.87,291.39c-1.19,0-2.06-.34-2.61-1.02-.56-.68-.64-1.96-.24-3.83l6.79-32.01h1.51l-6.84,32.23c-.25,1.22-.24,2.07.03,2.53.27.47.8.7,1.59.7.39,0,.79-.02,1.19-.05.39-.04.79-.11,1.19-.22l-.32,1.4c-.36.11-.76.18-1.21.22-.45.04-.8.05-1.05.05Z"/><path class="cls-2" d="M718.86,291.39c-1.19,0-2.06-.34-2.61-1.02-.56-.68-.64-1.96-.24-3.83l6.79-32.01h1.51l-6.84,32.23c-.25,1.22-.24,2.07.03,2.53.27.47.8.7,1.59.7.39,0,.79-.02,1.19-.05.39-.04.79-.11,1.19-.22l-.32,1.4c-.36.11-.76.18-1.21.22-.45.04-.8.05-1.05.05Z"/><path class="cls-2" d="M737.83,291.39c-4.13,0-6.85-1.13-8.16-3.4-1.31-2.26-1.52-5.57-.62-9.92.93-4.35,2.52-7.65,4.77-9.92,2.24-2.26,5.47-3.4,9.67-3.4s6.83,1.13,8.19,3.4c1.37,2.26,1.58,5.57.65,9.92-.9,4.35-2.46,7.65-4.69,9.92-2.23,2.26-5.5,3.4-9.81,3.4ZM738.15,290.04c3.74,0,6.57-1,8.51-2.99,1.94-1.99,3.34-4.99,4.2-8.97.57-2.66.74-4.88.49-6.66-.25-1.78-1.02-3.11-2.29-3.99-1.28-.88-3.23-1.32-5.85-1.32-3.7,0-6.54,1-8.51,2.99-1.98,1.99-3.38,4.98-4.2,8.97-.58,2.66-.75,4.88-.54,6.66.22,1.78.97,3.11,2.26,3.99,1.29.88,3.27,1.32,5.93,1.32Z"/><path class="cls-2" d="M752.33,297.32l3.07-8.25h1.78l-3.66,8.25h-1.19Z"/><path class="cls-2" d="M777.01,290.85l7.33-34.71h1.51l-7.33,34.71h-1.51Z"/><path class="cls-2" d="M791.78,264.17l4.15-8.57h1.78l-4.74,8.57h-1.19Z"/><path class="cls-2" d="M795.33,290.85l5.39-25.55h1.24l-.43,3.34c1.72-1.26,3.48-2.22,5.25-2.88,1.78-.66,3.55-1,5.31-1,2.05,0,3.56.34,4.53,1.02.97.68,1.58,1.62,1.83,2.8,1.47-1.08,3.11-1.98,4.9-2.72,1.8-.74,3.84-1.1,6.14-1.1,2.87,0,4.87.72,5.98,2.16,1.11,1.44,1.35,3.68.7,6.74l-3.61,17.19h-1.51l3.61-17.14c.61-2.84.42-4.81-.57-5.93-.99-1.11-2.78-1.67-5.36-1.67-1.8,0-3.57.32-5.31.97-1.74.65-3.31,1.58-4.72,2.8.04.54,0,1.2-.08,1.99-.09.79-.21,1.49-.35,2.1l-3.56,16.87h-1.51l3.56-16.87c.61-2.77.58-4.77-.08-6.01-.67-1.24-2.33-1.86-4.98-1.86-1.76,0-3.58.41-5.47,1.24-1.89.83-3.58,1.81-5.09,2.96l-4.31,20.53h-1.51Z"/><path class="cls-2" d="M639.81,426.73l44.29-116.9h12.71l44.11,116.9h-10.17l-12.89-34.13h-54.82l-12.89,34.13h-10.35ZM665.22,384.44h50.28l-25.23-66.62-25.05,66.62Z"/><path class="cls-2" d="M802.99,428.55c-15.85,0-27.74-3.78-35.67-11.34-7.93-7.56-11.89-18.48-11.89-32.76v-74.6h9.98v75.69c0,11.62,3.3,20.24,9.89,25.87,6.59,5.63,15.82,8.44,27.68,8.44s21.06-2.81,27.59-8.44,9.8-14.25,9.8-25.87v-75.69h9.98v74.6c0,14.28-3.93,25.2-11.8,32.76-7.87,7.56-19.73,11.34-35.58,11.34Z"/><path class="cls-2" d="M876.69,426.73v-116.9h51.37c11.5,0,19.81,2.66,24.96,7.99,5.14,5.33,7.71,12.83,7.71,22.51,0,6.53-1.36,11.98-4.08,16.34-2.72,4.36-6.44,7.56-11.16,9.62,6.05,1.33,10.89,4.18,14.52,8.53,3.63,4.36,5.45,10.65,5.45,18.88,0,11.38-2.84,19.73-8.53,25.05-5.69,5.33-14.16,7.99-25.41,7.99h-54.82ZM886.67,362.47h42.29c8.23,0,14.01-2.02,17.33-6.08,3.33-4.05,4.99-9.23,4.99-15.52,0-7.5-1.72-13.22-5.17-17.15-3.45-3.93-10.2-5.9-20.24-5.9h-39.21v44.65ZM886.67,418.93h43.93c8.59,0,14.91-1.97,18.97-5.9,4.05-3.93,6.08-10.5,6.08-19.69,0-7.5-1.97-13.22-5.9-17.15-3.93-3.93-11.23-5.9-21.87-5.9h-41.2v48.65Z"/><path class="cls-2" d="M989.05,426.73v-116.9h48.83c12.22,0,21.08,3.15,26.59,9.44,5.51,6.29,8.26,14.77,8.26,25.41,0,8.96-2.15,16.28-6.44,21.96-4.3,5.69-10.74,9.38-19.33,11.07,2.78,1.33,4.81,2.97,6.08,4.9,1.27,1.94,2.63,4.48,4.08,7.62l15.61,36.49h-10.17l-15.43-35.21c-1.21-2.78-2.54-5.02-3.99-6.72-1.45-1.69-3.45-2.93-5.99-3.72-2.54-.79-6.11-1.18-10.71-1.18h-27.41v46.83h-9.98ZM999.03,371.91h35.94c8.59,0,15.37-2.15,20.33-6.44,4.96-4.29,7.44-11.22,7.44-20.78,0-17.79-8.53-26.68-25.59-26.68h-38.12v53.91Z"/><path class="cls-2" d="M1096.5,426.73v-116.9h76.42v8.17h-66.44v46.29h60.08v7.99h-60.08v46.47h66.44v7.99h-76.42Z"/><path class="cls-2" d="M1232.64,426.73v-43.75l-41.57-73.15h10.35l36.3,64.44,36.3-64.44h10.35l-41.75,73.15v43.75h-9.98Z"/><path class="cls-2" d="M677.55,564.66v-43.65l-42.55-74.96h30.94l26.52,49.18,26.52-49.18h30.94l-42.55,74.96v43.65h-29.84Z"/><path class="cls-2" d="M814.77,566.5c-19.28,0-33.95-4.91-44.02-14.74-10.07-9.82-15.1-25.11-15.1-45.86,0-21.98,5.03-37.76,15.1-47.34,10.07-9.58,24.74-14.37,44.02-14.37s33.95,4.79,44.02,14.37c10.07,9.58,15.1,25.36,15.1,47.34,0,20.75-5.04,36.04-15.1,45.86-10.07,9.83-24.74,14.74-44.02,14.74ZM814.77,541.26c9.95,0,17.22-2.86,21.83-8.56,4.6-5.71,6.91-14.64,6.91-26.8,0-13.26-2.3-22.62-6.91-28.09-4.6-5.46-11.88-8.2-21.83-8.2s-17.41,2.73-22.01,8.2c-4.6,5.47-6.91,14.83-6.91,28.09,0,12.16,2.3,21.09,6.91,26.8,4.6,5.71,11.94,8.56,22.01,8.56Z"/><path class="cls-2" d="M956.41,566.5c-11.05,0-20.66-1.78-28.83-5.34-8.17-3.56-14.49-8.84-18.97-15.84-4.48-7-6.72-15.59-6.72-25.79v-73.49h29.65v70.73c0,8.23,2.15,14.37,6.45,18.42,4.3,4.05,10.44,6.08,18.42,6.08s14.12-2.03,18.42-6.08c4.3-4.05,6.45-10.19,6.45-18.42v-70.73h29.65v73.49c0,10.19-2.24,18.79-6.72,25.79-4.48,7-10.81,12.28-18.97,15.84-8.17,3.56-17.77,5.34-28.83,5.34Z"/><path class="cls-2" d="M1042.61,564.66v-118.62h25.42l50.47,70.91v-70.91h29.84v118.62h-25.6l-50.47-70.73v70.73h-29.65Z"/><path class="cls-2" d="M1240.06,566.5c-20.51,0-36.1-5.19-46.78-15.56-10.68-10.38-16.02-25.02-16.02-43.93s5.46-35.18,16.39-46.23c10.93-11.05,27.01-16.58,48.26-16.58,7.24,0,13.78.43,19.62,1.29,5.83.86,11.39,2.15,16.67,3.87v25.42c-5.28-1.96-10.77-3.32-16.49-4.05-5.71-.74-11.58-1.11-17.59-1.11-12.77,0-22.07,3.04-27.9,9.12-5.83,6.08-8.75,15.5-8.75,28.27,0,11.67,2.76,20.29,8.29,25.88,5.53,5.59,13.69,8.38,24.5,8.38,7.12,0,13.75-.98,19.89-2.95v-22.47h-25.6v-18.6h50.47v58.76c-4.18,2.7-9.98,5.13-17.41,7.28-7.43,2.15-16.61,3.22-27.54,3.22Z"/></svg>